<svg xmlns="http://www.w3.org/2000/svg" width="1200" height="630" viewBox="0 0 1200 630" shape-rendering="geometricPrecision">
  <rect width="1200" height="630" fill="#101216"/>
  <rect x="46" y="46" width="1108" height="538" fill="none" stroke="#3158c9" stroke-width="2"/>
  <g transform="translate(1074 75) scale(5)" fill="#3158c9" shape-rendering="crispEdges">
    <rect x="2" y="0" width="1" height="1"/><rect x="8" y="0" width="1" height="1"/>
    <rect x="3" y="1" width="1" height="1"/><rect x="7" y="1" width="1" height="1"/>
    <rect x="2" y="2" width="7" height="1"/><rect x="1" y="3" width="2" height="1"/>
    <rect x="4" y="3" width="3" height="1"/><rect x="8" y="3" width="2" height="1"/>
    <rect x="0" y="4" width="11" height="1"/><rect x="0" y="5" width="1" height="1"/>
    <rect x="2" y="5" width="7" height="1"/><rect x="10" y="5" width="1" height="1"/>
    <rect x="0" y="6" width="1" height="1"/><rect x="2" y="6" width="1" height="1"/>
    <rect x="8" y="6" width="1" height="1"/><rect x="10" y="6" width="1" height="1"/>
    <rect x="3" y="7" width="2" height="1"/><rect x="6" y="7" width="2" height="1"/>
  </g>
  <text x="82" y="236" fill="#efede5" font-family="Georgia, serif" font-size="106">Кирилл</text>
  <text x="82" y="344" fill="#8aa6ff" font-family="Georgia, serif" font-size="108" font-style="italic">Лифанов</text>
  <text x="86" y="410" fill="#e1ddd0" font-family="Arial, sans-serif" font-size="30" font-weight="600">Digital &amp; Content Manager</text>
  <text x="86" y="456" fill="#aeb7c4" font-family="Arial, sans-serif" font-size="19">Медиа · AI-автоматизация · Brand Safety</text>
  <path d="M86 506H710" stroke="#3158c9" stroke-width="2"/>
  <text x="86" y="544" fill="#8aa6ff" font-family="Arial, sans-serif" font-size="15" font-weight="700" letter-spacing="3">KIRKTHEUNDERSTANDER.GITHUB.IO / PORTFOLIO-DOSSIER</text>
</svg>
